<?xml version="1.0" encoding="utf-8"?>
<!-- Generator: Adobe Illustrator 24.0.2, SVG Export Plug-In . SVG Version: 6.00 Build 0)  -->
<svg version="1.1" id="Warstwa_1" xmlns="http://www.w3.org/2000/svg" xmlns:xlink="http://www.w3.org/1999/xlink" x="0px" y="0px"
	 viewBox="0 0 430 430" style="enable-background:new 0 0 430 430;" xml:space="preserve">
<style type="text/css">
	.st0{fill:#4BB3FD;}
	.st1{opacity:0.5;}
	.st2{opacity:0;}
	.st3{fill:#121331;}
	.st4{fill:#3A3347;}
	.st5{fill:#f28ba8;}
	.st6{fill:#FFC738;}
	.st7{fill:#ebe6ef;}
	.st8{fill:#2CA58D;}
	.st9{fill:#F24C00;}
	.st10{fill:#F9C9C0;}
	.st11{fill:#646E78;}
	.st12{opacity:0.4;}
	.st13{fill:#B26836;}
	.st14{opacity:0.8;}
</style>
<g>
	<path class="st5" d="M360.73,229.91c20.1-20.1,30.2-46.47,30.2-72.79c0-26.36-10.1-52.73-30.2-72.83
		c-17.16-17.17-38.86-27.02-61.24-29.54c-30.06-3.38-61.33,6.46-84.38,29.54L215,84.41l-0.13-0.12c-20.1-20.1-46.47-30.2-72.79-30.2
		c-26.36,0-52.73,10.1-72.83,30.2c-40.25,40.21-40.25,105.41,0,145.62L215,375.65L360.73,229.91z"/>
</g>
<g class="st1">
	<path class="st5" d="M215,84.41v291.24L69.25,229.91C29,189.71,29,124.49,69.25,84.29c20.11-20.11,46.46-30.2,72.83-30.2
		c26.32,0,52.69,10.09,72.78,30.2L215,84.41z"/>
</g>
<g>
	<path class="st3" d="M215,379.15c-0.93,0-1.82-0.37-2.48-1.03L66.78,232.38c-20.13-20.1-31.21-46.84-31.21-75.28
		s11.08-55.18,31.21-75.29c20.13-20.13,46.88-31.22,75.3-31.22c27.31,0,53.07,10.25,72.91,28.94c22.82-21.5,53.57-31.78,84.89-28.26
		c24.18,2.72,46.08,13.28,63.32,30.54c20.13,20.13,31.22,46.88,31.22,75.3c0,28.4-11.09,55.13-31.22,75.26h0L217.47,378.13
		C216.81,378.78,215.92,379.15,215,379.15z M142.08,57.59c-26.56,0-51.54,10.36-70.35,29.17c-18.81,18.79-29.16,43.76-29.16,70.33
		s10.36,51.55,29.16,70.33L215,370.7l143.26-143.27h0c18.81-18.81,29.17-43.78,29.17-70.31c0-26.56-10.36-51.54-29.17-70.36
		c-16.11-16.13-36.56-25.99-59.16-28.53c-30.28-3.41-59.99,6.99-81.51,28.53l-0.12,0.12c-1.35,1.35-3.54,1.37-4.91,0.04l-0.13-0.12
		C193.58,67.95,168.61,57.59,142.08,57.59z"/>
</g>
<g>
	<path class="st7" d="M66.82,162.88c-1.93,0-3.5-1.57-3.5-3.5c0-44.73,36.39-81.12,81.12-81.12c1.93,0,3.5,1.57,3.5,3.5
		s-1.57,3.5-3.5,3.5c-40.87,0-74.12,33.25-74.12,74.12C70.32,161.31,68.76,162.88,66.82,162.88z"/>
</g>
</svg>
